# xmcd CD database file
#
# Track frame offsets:
#	150
#	27167
#	35210
#	60717
#	72787
#	85157
#	104690
#	126360
#	136070
#	153340
#	166622
#	174227
#
# Disc length: 2542 seconds
#
# Revision: 0
# Processed by: cddbd v1.5.1PL2 Copyright (c) Steve Scherf et al.
# Submitted via: CDex 1.51
#
DISCID=9909ec0c
DTITLE=Various Artist - Músicas que elevam - Vol. 5
DYEAR=1900
DGENRE=New Age
TTITLE0=01-Mozart - Fantasia.mp3
TTITLE1=02-Shumann - Chiarina - Carnaval Opus 9.mp3
TTITLE2=03-Liszt - Estudo de Concerto n° 3.mp3
TTITLE3=04-Tchaikovsky - Abril.mp3
TTITLE4=05-Gluck - Dança dos Espíritos Bem-Aventurados.mp3
TTITLE5=06-Chopin - Estudo - Opus n° 3.mp3
TTITLE6=07-Paiva Neto - Idalina Cecília.mp3
TTITLE7=08-Corelli - Sarabanda Opus 5 n° 8.mp3
TTITLE8=09-Scheidler - Romance.mp3
TTITLE9=10-Vivaldi - Glória in Excelsis Deo.mp3
TTITLE10=11-Mendelssohn - Above all praise.mp3
TTITLE11=12-Vanderlei Pereira - O Todo Poderoso Deus.mp3
EXTD=
EXTT0=
EXTT1=
EXTT2=
EXTT3=
EXTT4=
EXTT5=
EXTT6=
EXTT7=
EXTT8=
EXTT9=
EXTT10=
EXTT11=
PLAYORDER=
